<?xml version="1.0" encoding="UTF-8"?>
<svg xmlns="http://www.w3.org/2000/svg" width="1800" height="1100" viewBox="0 0 1800 1100">
  <defs>
    <style>
      .bg { fill: #0f1412; }
      .title { fill: #f4f7f5; font-family: Arial, sans-serif; font-size: 42px; font-weight: 700; }
      .subtitle { fill: #b6c2bc; font-family: Arial, sans-serif; font-size: 20px; }
      .cardTitle { fill: #f4f7f5; font-family: Arial, sans-serif; font-size: 30px; font-weight: 700; }
      .label { fill: #dce4e0; font-family: Arial, sans-serif; font-size: 16px; font-weight: 600; }
      .hex { fill: #d4af37; font-family: Consolas, monospace; font-size: 15px; font-weight: 700; }
      .small { fill: #9fb0a8; font-family: Arial, sans-serif; font-size: 14px; }
    </style>
    <filter id="shadow" x="-20%" y="-20%" width="140%" height="140%">
      <feDropShadow dx="0" dy="8" stdDeviation="8" flood-color="#000000" flood-opacity="0.35"/>
    </filter>
  </defs>

  <rect class="bg" x="0" y="0" width="1800" height="1100"/>
  <text class="title" x="70" y="85">Brighter Theme Options (D~H)</text>
  <text class="subtitle" x="70" y="118">Five brighter alternatives than previous A/B/C</text>

  <!-- D -->
  <g transform="translate(70,160)" filter="url(#shadow)">
    <rect x="0" y="0" rx="20" ry="20" width="320" height="860" fill="#182823" stroke="#2c3f38" stroke-width="1.5"/>
    <text class="cardTitle" x="20" y="45">D</text>
    <text class="small" x="20" y="68">Balanced bright dark</text>
    <rect x="20" y="92" width="280" height="52" rx="10" fill="#182823"/><text class="label" x="30" y="123">Background</text><text class="hex" x="190" y="123">#182823</text>
    <rect x="20" y="156" width="280" height="52" rx="10" fill="#24362F"/><text class="label" x="30" y="187">Surface</text><text class="hex" x="190" y="187">#24362F</text>
    <rect x="20" y="220" width="280" height="52" rx="10" fill="#D4AF37"/><text x="30" y="251" style="fill:#1a2320;font-family:Arial,sans-serif;font-size:16px;font-weight:700;">Point Gold</text><text x="190" y="251" style="fill:#1a2320;font-family:Consolas,monospace;font-size:15px;font-weight:700;">#D4AF37</text>
    <rect x="20" y="284" width="280" height="52" rx="10" fill="#2f463d"/><text class="label" x="30" y="315">Text Sub</text><text class="hex" x="190" y="315">#C2CEC7</text>
    <rect x="60" y="365" width="200" height="180" rx="16" fill="#182823" stroke="#385148"/>
    <rect x="60" y="365" width="200" height="38" rx="16" fill="#24362F"/>
    <rect x="74" y="414" width="172" height="52" rx="12" fill="#24362F" stroke="#46675c"/>
    <rect x="74" y="475" width="172" height="52" rx="12" fill="#24362F" stroke="#46675c"/>
    <rect x="112" y="537" width="96" height="16" rx="8" fill="#D4AF37"/>
  </g>

  <!-- E -->
  <g transform="translate(420,160)" filter="url(#shadow)">
    <rect x="0" y="0" rx="20" ry="20" width="320" height="860" fill="#1D2E28" stroke="#32463f" stroke-width="1.5"/>
    <text class="cardTitle" x="20" y="45">E</text>
    <text class="small" x="20" y="68">Fresh premium tone</text>
    <rect x="20" y="92" width="280" height="52" rx="10" fill="#1D2E28"/><text class="label" x="30" y="123">Background</text><text class="hex" x="190" y="123">#1D2E28</text>
    <rect x="20" y="156" width="280" height="52" rx="10" fill="#2A3D35"/><text class="label" x="30" y="187">Surface</text><text class="hex" x="190" y="187">#2A3D35</text>
    <rect x="20" y="220" width="280" height="52" rx="10" fill="#D4AF37"/><text x="30" y="251" style="fill:#1a2320;font-family:Arial,sans-serif;font-size:16px;font-weight:700;">Point Gold</text><text x="190" y="251" style="fill:#1a2320;font-family:Consolas,monospace;font-size:15px;font-weight:700;">#D4AF37</text>
    <rect x="20" y="284" width="280" height="52" rx="10" fill="#354b43"/><text class="label" x="30" y="315">Text Sub</text><text class="hex" x="190" y="315">#C7D2CC</text>
    <rect x="60" y="365" width="200" height="180" rx="16" fill="#1D2E28" stroke="#426057"/>
    <rect x="60" y="365" width="200" height="38" rx="16" fill="#2A3D35"/>
    <rect x="74" y="414" width="172" height="52" rx="12" fill="#2A3D35" stroke="#4f7165"/>
    <rect x="74" y="475" width="172" height="52" rx="12" fill="#2A3D35" stroke="#4f7165"/>
    <rect x="112" y="537" width="96" height="16" rx="8" fill="#D4AF37"/>
  </g>

  <!-- F -->
  <g transform="translate(770,160)" filter="url(#shadow)">
    <rect x="0" y="0" rx="20" ry="20" width="320" height="860" fill="#22342D" stroke="#3a4e46" stroke-width="1.5"/>
    <text class="cardTitle" x="20" y="45">F</text>
    <text class="small" x="20" y="68">Strong readability</text>
    <rect x="20" y="92" width="280" height="52" rx="10" fill="#22342D"/><text class="label" x="30" y="123">Background</text><text class="hex" x="190" y="123">#22342D</text>
    <rect x="20" y="156" width="280" height="52" rx="10" fill="#31463D"/><text class="label" x="30" y="187">Surface</text><text class="hex" x="190" y="187">#31463D</text>
    <rect x="20" y="220" width="280" height="52" rx="10" fill="#D4AF37"/><text x="30" y="251" style="fill:#1a2320;font-family:Arial,sans-serif;font-size:16px;font-weight:700;">Point Gold</text><text x="190" y="251" style="fill:#1a2320;font-family:Consolas,monospace;font-size:15px;font-weight:700;">#D4AF37</text>
    <rect x="20" y="284" width="280" height="52" rx="10" fill="#3c554b"/><text class="label" x="30" y="315">Text Sub</text><text class="hex" x="190" y="315">#CDD7D2</text>
    <rect x="60" y="365" width="200" height="180" rx="16" fill="#22342D" stroke="#4a6960"/>
    <rect x="60" y="365" width="200" height="38" rx="16" fill="#31463D"/>
    <rect x="74" y="414" width="172" height="52" rx="12" fill="#31463D" stroke="#5b7f72"/>
    <rect x="74" y="475" width="172" height="52" rx="12" fill="#31463D" stroke="#5b7f72"/>
    <rect x="112" y="537" width="96" height="16" rx="8" fill="#D4AF37"/>
  </g>

  <!-- G -->
  <g transform="translate(1120,160)" filter="url(#shadow)">
    <rect x="0" y="0" rx="20" ry="20" width="320" height="860" fill="#283730" stroke="#42564e" stroke-width="1.5"/>
    <text class="cardTitle" x="20" y="45">G</text>
    <text class="small" x="20" y="68">Warm lounge mood</text>
    <rect x="20" y="92" width="280" height="52" rx="10" fill="#283730"/><text class="label" x="30" y="123">Background</text><text class="hex" x="190" y="123">#283730</text>
    <rect x="20" y="156" width="280" height="52" rx="10" fill="#374B42"/><text class="label" x="30" y="187">Surface</text><text class="hex" x="190" y="187">#374B42</text>
    <rect x="20" y="220" width="280" height="52" rx="10" fill="#D4AF37"/><text x="30" y="251" style="fill:#1a2320;font-family:Arial,sans-serif;font-size:16px;font-weight:700;">Point Gold</text><text x="190" y="251" style="fill:#1a2320;font-family:Consolas,monospace;font-size:15px;font-weight:700;">#D4AF37</text>
    <rect x="20" y="284" width="280" height="52" rx="10" fill="#465f55"/><text class="label" x="30" y="315">Text Sub</text><text class="hex" x="190" y="315">#D1DAD5</text>
    <rect x="60" y="365" width="200" height="180" rx="16" fill="#283730" stroke="#54756a"/>
    <rect x="60" y="365" width="200" height="38" rx="16" fill="#374B42"/>
    <rect x="74" y="414" width="172" height="52" rx="12" fill="#374B42" stroke="#688f81"/>
    <rect x="74" y="475" width="172" height="52" rx="12" fill="#374B42" stroke="#688f81"/>
    <rect x="112" y="537" width="96" height="16" rx="8" fill="#D4AF37"/>
  </g>

  <!-- H -->
  <g transform="translate(1470,160)" filter="url(#shadow)">
    <rect x="0" y="0" rx="20" ry="20" width="260" height="860" fill="#2E3D36" stroke="#4a6057" stroke-width="1.5"/>
    <text class="cardTitle" x="18" y="45">H</text>
    <text class="small" x="18" y="68">Brightest dark-edge</text>
    <rect x="18" y="92" width="224" height="52" rx="10" fill="#2E3D36"/><text class="label" x="26" y="123">Background</text><text class="hex" x="130" y="123">#2E3D36</text>
    <rect x="18" y="156" width="224" height="52" rx="10" fill="#3E5248"/><text class="label" x="26" y="187">Surface</text><text class="hex" x="130" y="187">#3E5248</text>
    <rect x="18" y="220" width="224" height="52" rx="10" fill="#D4AF37"/><text x="26" y="251" style="fill:#1a2320;font-family:Arial,sans-serif;font-size:16px;font-weight:700;">Point Gold</text><text x="130" y="251" style="fill:#1a2320;font-family:Consolas,monospace;font-size:15px;font-weight:700;">#D4AF37</text>
    <rect x="18" y="284" width="224" height="52" rx="10" fill="#50665c"/><text class="label" x="26" y="315">Text Sub</text><text class="hex" x="130" y="315">#D7DFDA</text>
    <rect x="42" y="365" width="176" height="180" rx="16" fill="#2E3D36" stroke="#5f8073"/>
    <rect x="42" y="365" width="176" height="38" rx="16" fill="#3E5248"/>
    <rect x="54" y="414" width="152" height="52" rx="12" fill="#3E5248" stroke="#739a8a"/>
    <rect x="54" y="475" width="152" height="52" rx="12" fill="#3E5248" stroke="#739a8a"/>
    <rect x="88" y="537" width="84" height="16" rx="8" fill="#D4AF37"/>
  </g>
</svg>
